<svg width="200" height="200" viewBox="0 0 200 200" xmlns="http://www.w3.org/2000/svg">
  <defs>
    <linearGradient id="grad2" x1="0%" y1="0%" x2="100%" y2="100%">
      <stop offset="0%" style="stop-color:#f093fb;stop-opacity:1" />
      <stop offset="100%" style="stop-color:#f5576c;stop-opacity:1" />
    </linearGradient>
  </defs>
  <rect width="200" height="200" fill="url(#grad2)" rx="20"/>
  <!-- Голова -->
  <circle cx="100" cy="75" r="30" fill="white" opacity="0.95"/>
  <!-- Волосы -->
  <path d="M 70 60 Q 70 45 85 45 Q 95 45 100 48 Q 105 45 115 45 Q 130 45 130 60 L 130 75 Q 130 80 125 80 Q 115 80 110 75 Q 100 80 90 75 Q 85 80 75 80 Q 70 80 70 75 Z" fill="white" opacity="0.95"/>
  <!-- Тело с руками -->
  <rect x="70" y="105" width="60" height="65" rx="15" fill="white" opacity="0.95"/>
  <rect x="50" y="115" width="20" height="40" rx="10" fill="white" opacity="0.95"/>
  <rect x="130" y="115" width="20" height="40" rx="10" fill="white" opacity="0.95"/>
  <!-- Глаза (закрытые) -->
  <path d="M 85 72 Q 90 74 95 72" stroke="#f5576c" stroke-width="3" fill="none" stroke-linecap="round"/>
  <path d="M 105 72 Q 110 74 115 72" stroke="#f5576c" stroke-width="3" fill="none" stroke-linecap="round"/>
  <!-- Улыбка -->
  <path d="M 88 88 Q 100 95 112 88" stroke="#f5576c" stroke-width="3" fill="none" stroke-linecap="round"/>
</svg>

