<svg xmlns="http://www.w3.org/2000/svg" viewBox="0 0 200 200">
  <defs>
    <linearGradient id="bondsMasterGrad" x1="0%" y1="0%" x2="100%" y2="100%">
      <stop offset="0%" style="stop-color:#3b82f6;stop-opacity:1" />
      <stop offset="100%" style="stop-color:#1d4ed8;stop-opacity:1" />
    </linearGradient>
  </defs>
  
  <circle cx="100" cy="100" r="85" fill="#3b82f6" opacity="0.1"/>
  <circle cx="100" cy="100" r="70" fill="url(#bondsMasterGrad)" opacity="0.9"/>
  
  <!-- Document with crown -->
  <rect x="60" y="60" width="80" height="90" rx="6" fill="white" opacity="0.98"/>
  <rect x="60" y="60" width="80" height="18" rx="6" fill="#3b82f6" opacity="0.8"/>
  
  <!-- Document lines -->
  <line x1="70" y1="90" x2="130" y2="90" stroke="#3b82f6" stroke-width="2.5" opacity="0.5"/>
  <line x1="70" y1="100" x2="120" y2="100" stroke="#cbd5e1" stroke-width="2" opacity="0.4"/>
  <line x1="70" y1="110" x2="130" y2="110" stroke="#cbd5e1" stroke-width="2" opacity="0.4"/>
  <line x1="70" y1="120" x2="115" y2="120" stroke="#cbd5e1" stroke-width="2" opacity="0.4"/>
  
  <!-- Seal/stamp with crown -->
  <circle cx="110" cy="135" r="14" fill="#3b82f6" opacity="0.35"/>
  <circle cx="110" cy="135" r="10" fill="none" stroke="#3b82f6" stroke-width="2" opacity="0.6"/>
  <text x="110" y="140" font-family="Arial, sans-serif" font-size="10" fill="#3b82f6" text-anchor="middle" font-weight="bold">★</text>
  
  <!-- Crown on document -->
  <path d="M 88 38 L 90 48 L 94 44 L 100 35 L 106 44 L 110 48 L 112 38 Z" fill="#fbbf24" opacity="0.95"/>
  <rect x="87" y="48" width="26" height="5" rx="1" fill="#fbbf24" opacity="0.95"/>
  
  <!-- Corner fold -->
  <polygon points="125,60 140,60 140,75" fill="#e2e8f0" opacity="0.8"/>
  <polygon points="130,60 140,60 140,70" fill="#cbd5e1" opacity="0.6"/>
</svg>

