<svg xmlns="http://www.w3.org/2000/svg" viewBox="0 0 200 200">
  <defs>
    <linearGradient id="retireMasterGrad" x1="0%" y1="0%" x2="100%" y2="100%">
      <stop offset="0%" style="stop-color:#8b5cf6;stop-opacity:1" />
      <stop offset="100%" style="stop-color:#7c3aed;stop-opacity:1" />
    </linearGradient>
  </defs>
  
  <circle cx="100" cy="100" r="85" fill="#8b5cf6" opacity="0.1"/>
  <circle cx="100" cy="100" r="70" fill="url(#retireMasterGrad)" opacity="0.9"/>
  
  <!-- Calendar with crown -->
  <rect x="60" y="70" width="80" height="70" rx="6" fill="white" opacity="0.98"/>
  <rect x="60" y="70" width="80" height="16" rx="6" fill="#8b5cf6" opacity="0.8"/>
  
  <!-- Calendar rings -->
  <circle cx="75" cy="66" r="3" fill="#7c3aed" opacity="0.8"/>
  <circle cx="100" cy="66" r="3" fill="#7c3aed" opacity="0.8"/>
  <circle cx="125" cy="66" r="3" fill="#7c3aed" opacity="0.8"/>
  
  <!-- Grid -->
  <line x1="73" y1="95" x2="73" y2="130" stroke="#e5e7eb" stroke-width="1.5"/>
  <line x1="87" y1="95" x2="87" y2="130" stroke="#e5e7eb" stroke-width="1.5"/>
  <line x1="100" y1="95" x2="100" y2="130" stroke="#e5e7eb" stroke-width="1.5"/>
  <line x1="113" y1="95" x2="113" y2="130" stroke="#e5e7eb" stroke-width="1.5"/>
  <line x1="127" y1="95" x2="127" y2="130" stroke="#e5e7eb" stroke-width="1.5"/>
  <line x1="60" y1="105" x2="140" y2="105" stroke="#e5e7eb" stroke-width="1.5"/>
  <line x1="60" y1="118" x2="140" y2="118" stroke="#e5e7eb" stroke-width="1.5"/>
  
  <!-- Special date marked -->
  <circle cx="120" cy="111" r="5" fill="#f59e0b" opacity="0.8"/>
  
  <!-- Crown -->
  <path d="M 88 48 L 90 58 L 94 54 L 100 45 L 106 54 L 110 58 L 112 48 Z" fill="#fbbf24" opacity="0.95"/>
  <rect x="87" y="58" width="26" height="5" rx="1" fill="#fbbf24" opacity="0.95"/>
  
  <!-- Beach umbrella -->
  <line x1="150" y1="125" x2="150" y2="148" stroke="#f59e0b" stroke-width="2.5"/>
  <path d="M 142 125 Q 150 118 158 125" fill="#ef4444" opacity="0.85"/>
  <path d="M 142 125 Q 150 121 158 125" fill="#dc2626" opacity="0.6"/>
  
  <!-- Sun -->
  <circle cx="160" cy="95" r="10" fill="#fbbf24" opacity="0.9"/>
  <line x1="160" y1="82" x2="160" y2="86" stroke="#fbbf24" stroke-width="2" opacity="0.7"/>
  <line x1="173" y1="95" x2="169" y2="95" stroke="#fbbf24" stroke-width="2" opacity="0.7"/>
</svg>

