<svg xmlns="http://www.w3.org/2000/svg" viewBox="0 0 200 200">
  <defs>
    <linearGradient id="taxMasterGrad" x1="0%" y1="0%" x2="100%" y2="100%">
      <stop offset="0%" style="stop-color:#a855f7;stop-opacity:1" />
      <stop offset="50%" style="stop-color:#ec4899;stop-opacity:1" />
      <stop offset="100%" style="stop-color:#f59e0b;stop-opacity:1" />
    </linearGradient>
  </defs>
  
  <circle cx="100" cy="100" r="85" fill="#a855f7" opacity="0.2"/>
  <circle cx="100" cy="100" r="70" fill="url(#taxMasterGrad)" opacity="0.95"/>
  
  <!-- Document stack with crown -->
  <rect x="65" y="65" width="70" height="75" rx="5" fill="white" opacity="1"/>
  <rect x="69" y="69" width="70" height="75" rx="5" fill="white" opacity="0.95"/>
  <rect x="73" y="73" width="70" height="75" rx="5" fill="white" opacity="0.98"/>
  
  <!-- Header with crown -->
  <rect x="73" y="73" width="70" height="20" rx="5" fill="#a855f7" opacity="0.8"/>
  <text x="108" y="87" font-family="Arial, sans-serif" font-size="10" fill="white" text-anchor="middle" font-weight="bold">НАЛОГИ</text>
  
  <!-- Lines -->
  <line x1="80" y1="105" x2="136" y2="105" stroke="#a855f7" stroke-width="2" opacity="0.4"/>
  <line x1="80" y1="113" x2="130" y2="113" stroke="#cbd5e1" stroke-width="1.8" opacity="0.4"/>
  <line x1="80" y1="121" x2="133" y2="121" stroke="#cbd5e1" stroke-width="1.8" opacity="0.4"/>
  <line x1="80" y1="129" x2="125" y2="129" stroke="#cbd5e1" stroke-width="1.8" opacity="0.4"/>
  
  <!-- Diamond on top -->
  <polygon points="108,40 118,55 113,67 103,67 98,55" fill="#fef3c7" opacity="0.95" filter="drop-shadow(0 2px 4px rgba(0,0,0,0.3))"/>
  <polygon points="108,47 115,55 111,62 105,62 101,55" fill="white" opacity="0.7"/>
  <line x1="108" y1="40" x2="108" y2="67" stroke="#a855f7" stroke-width="1" opacity="0.3"/>
  <line x1="98" y1="55" x2="118" y2="55" stroke="#a855f7" stroke-width="1" opacity="0.3"/>
  
  <!-- Percentage symbols -->
  <circle cx="95" cy="137" r="6" fill="#ec4899" opacity="0.3"/>
  <circle cx="120" cy="140" r="6" fill="#ec4899" opacity="0.3"/>
  <line x1="91" y1="144" x2="124" y2="133" stroke="#ec4899" stroke-width="2.5" opacity="0.5"/>
  <text x="95" y="141" font-family="Arial, sans-serif" font-size="8" fill="#ec4899" text-anchor="middle" font-weight="bold">%</text>
  
  <!-- Calculator corner -->
  <rect x="150" y="130" width="24" height="32" rx="3" fill="#a855f7" opacity="0.8"/>
  <rect x="153" y="133" width="18" height="8" rx="2" fill="white" opacity="0.9"/>
  <circle cx="158" cy="147" r="2" fill="white" opacity="0.7"/>
  <circle cx="165" cy="147" r="2" fill="white" opacity="0.7"/>
  <circle cx="158" cy="154" r="2" fill="white" opacity="0.7"/>
  <circle cx="165" cy="154" r="2" fill="white" opacity="0.7"/>
</svg>

