<svg xmlns="http://www.w3.org/2000/svg" viewBox="0 0 200 200">
  <defs>
    <linearGradient id="budgetMasterGrad" x1="0%" y1="0%" x2="100%" y2="100%">
      <stop offset="0%" style="stop-color:#8b5cf6;stop-opacity:1" />
      <stop offset="100%" style="stop-color:#7c3aed;stop-opacity:1" />
    </linearGradient>
  </defs>
  
  <circle cx="100" cy="100" r="85" fill="#8b5cf6" opacity="0.1"/>
  <circle cx="100" cy="100" r="70" fill="url(#budgetMasterGrad)" opacity="0.9"/>
  
  <!-- Calculator with crown -->
  <rect x="70" y="70" width="60" height="70" rx="6" fill="white" opacity="0.95"/>
  <rect x="75" y="75" width="50" height="18" rx="3" fill="#8b5cf6" opacity="0.3"/>
  <text x="100" y="88" font-family="monospace" font-size="12" fill="#8b5cf6" text-anchor="middle" font-weight="bold">100%</text>
  
  <!-- Buttons -->
  <circle cx="85" cy="105" r="5" fill="#8b5cf6" opacity="0.4"/>
  <circle cx="100" cy="105" r="5" fill="#8b5cf6" opacity="0.4"/>
  <circle cx="115" cy="105" r="5" fill="#8b5cf6" opacity="0.4"/>
  <circle cx="85" cy="120" r="5" fill="#8b5cf6" opacity="0.4"/>
  <circle cx="100" cy="120" r="5" fill="#8b5cf6" opacity="0.4"/>
  <circle cx="115" cy="120" r="5" fill="#8b5cf6" opacity="0.4"/>
  
  <!-- Mini crown on calculator -->
  <path d="M 90 55 L 92 63 L 95 58 L 100 50 L 105 58 L 108 63 L 110 55 Z" fill="#fbbf24" opacity="0.95"/>
  <rect x="89" y="63" width="22" height="5" rx="1" fill="#fbbf24" opacity="0.95"/>
  
  <!-- Coin -->
  <circle cx="140" cy="130" r="15" fill="#ffd700" opacity="0.95"/>
  <text x="140" y="136" font-family="Arial, sans-serif" font-size="12" fill="#9a7b00" text-anchor="middle" font-weight="bold">₽</text>
</svg>

