<svg xmlns="http://www.w3.org/2000/svg" viewBox="0 0 200 200">
  <defs>
    <linearGradient id="insureMasterGrad" x1="0%" y1="0%" x2="100%" y2="100%">
      <stop offset="0%" style="stop-color:#14b8a6;stop-opacity:1" />
      <stop offset="100%" style="stop-color:#0d9488;stop-opacity:1" />
    </linearGradient>
  </defs>
  
  <circle cx="100" cy="100" r="85" fill="#14b8a6" opacity="0.1"/>
  <circle cx="100" cy="100" r="70" fill="url(#insureMasterGrad)" opacity="0.9"/>
  
  <!-- Umbrella with crown -->
  <path d="M 100 145 Q 108 153 112 157" stroke="white" stroke-width="3.5" fill="none" stroke-linecap="round" opacity="0.95"/>
  <path d="M 55 95 Q 55 70 75 70 Q 75 82 87 82 Q 87 70 100 70 Q 100 82 112 82 Q 112 70 125 70 Q 145 70 145 95 L 100 95 Z" 
        fill="white" opacity="0.98"/>
  <line x1="75" y1="70" x2="75" y2="95" stroke="#14b8a6" stroke-width="2" opacity="0.4"/>
  <line x1="100" y1="70" x2="100" y2="95" stroke="#14b8a6" stroke-width="2" opacity="0.4"/>
  <line x1="125" y1="70" x2="125" y2="95" stroke="#14b8a6" stroke-width="2" opacity="0.4"/>
  
  <!-- Crown on umbrella -->
  <path d="M 88 48 L 90 58 L 94 54 L 100 45 L 106 54 L 110 58 L 112 48 Z" fill="#fbbf24" opacity="0.95"/>
  <rect x="87" y="58" width="26" height="5" rx="1" fill="#fbbf24" opacity="0.95"/>
  <circle cx="94" cy="53" r="2" fill="#ef4444" opacity="0.9"/>
  <circle cx="100" cy="50" r="2" fill="#3b82f6" opacity="0.9"/>
  <circle cx="106" cy="53" r="2" fill="#10b981" opacity="0.9"/>
  
  <!-- Rain drops -->
  <ellipse cx="50" cy="115" rx="2.5" ry="4" fill="#38bdf8" opacity="0.6"/>
  <ellipse cx="58" cy="127" rx="2.5" ry="4" fill="#38bdf8" opacity="0.6"/>
  <ellipse cx="65" cy="138" rx="2.5" ry="4" fill="#38bdf8" opacity="0.6"/>
  <ellipse cx="150" cy="115" rx="2.5" ry="4" fill="#38bdf8" opacity="0.6"/>
  <ellipse cx="142" cy="127" rx="2.5" ry="4" fill="#38bdf8" opacity="0.6"/>
  <ellipse cx="135" cy="138" rx="2.5" ry="4" fill="#38bdf8" opacity="0.6"/>
  
  <!-- Shield badge -->
  <path d="M 155 60 L 163 60 L 163 72 Q 159 76 155 72 Z" fill="white" opacity="0.9"/>
  <text x="159" y="69" font-family="Arial, sans-serif" font-size="8" fill="#14b8a6" text-anchor="middle" font-weight="bold">✓</text>
</svg>

