<svg xmlns="http://www.w3.org/2000/svg" viewBox="0 0 200 200">
  <defs>
    <linearGradient id="fraudMasterGrad" x1="0%" y1="0%" x2="100%" y2="100%">
      <stop offset="0%" style="stop-color:#ef4444;stop-opacity:1" />
      <stop offset="100%" style="stop-color:#dc2626;stop-opacity:1" />
    </linearGradient>
  </defs>
  
  <circle cx="100" cy="100" r="85" fill="#ef4444" opacity="0.1"/>
  <circle cx="100" cy="100" r="70" fill="url(#fraudMasterGrad)" opacity="0.9"/>
  
  <!-- Shield with crown -->
  <path d="M 100 60 L 135 72 L 135 105 Q 135 135 100 148 Q 65 135 65 105 L 65 72 Z" 
        fill="white" opacity="0.98"/>
  <path d="M 100 60 L 135 72 L 135 105 Q 135 135 100 148 Q 65 135 65 105 L 65 72 Z" 
        fill="none" stroke="#ef4444" stroke-width="2" opacity="0.4"/>
  
  <!-- Exclamation mark -->
  <rect x="96" y="80" width="8" height="30" rx="2" fill="#ef4444" opacity="0.95"/>
  <circle cx="100" cy="125" r="5" fill="#ef4444" opacity="0.95"/>
  
  <!-- Crown on shield -->
  <path d="M 88 38 L 90 48 L 94 44 L 100 35 L 106 44 L 110 48 L 112 38 Z" fill="#fbbf24" opacity="0.95"/>
  <rect x="87" y="48" width="26" height="5" rx="1" fill="#fbbf24" opacity="0.95"/>
  <circle cx="94" cy="43" r="2" fill="#ef4444" opacity="0.9"/>
  <circle cx="100" cy="40" r="2.5" fill="#3b82f6" opacity="0.9"/>
  <circle cx="106" cy="43" r="2" fill="#10b981" opacity="0.9"/>
  
  <!-- Warning lines -->
  <line x1="55" y1="105" x2="47" y2="105" stroke="#ef4444" stroke-width="2.5" opacity="0.6"/>
  <line x1="145" y1="105" x2="153" y2="105" stroke="#ef4444" stroke-width="2.5" opacity="0.6"/>
  <line x1="100" y1="52" x2="100" y2="44" stroke="#ef4444" stroke-width="2.5" opacity="0.6"/>
  
  <!-- Lock symbol corner -->
  <rect x="145" y="145" width="20" height="15" rx="2" fill="#fbbf24" opacity="0.85"/>
  <path d="M 149 145 L 149 141 Q 149 137 155 137 Q 161 137 161 141 L 161 145" 
        stroke="#fbbf24" stroke-width="2.5" fill="none" opacity="0.85"/>
  <circle cx="155" cy="152" r="2.5" fill="white" opacity="0.85"/>
</svg>

