<svg xmlns="http://www.w3.org/2000/svg" viewBox="0 0 200 200">
  <defs>
    <linearGradient id="secMasterGrad" x1="0%" y1="0%" x2="100%" y2="100%">
      <stop offset="0%" style="stop-color:#10b981;stop-opacity:1" />
      <stop offset="50%" style="stop-color:#06b6d4;stop-opacity:1" />
      <stop offset="100%" style="stop-color:#3b82f6;stop-opacity:1" />
    </linearGradient>
  </defs>
  
  <circle cx="100" cy="100" r="85" fill="#10b981" opacity="0.15"/>
  <circle cx="100" cy="100" r="70" fill="url(#secMasterGrad)" opacity="0.95"/>
  
  <!-- Large shield with lock and crown -->
  <path d="M 100 50 L 145 65 L 145 105 Q 145 143 100 160 Q 55 143 55 105 L 55 65 Z" 
        fill="white" opacity="0.98"/>
  <path d="M 100 50 L 145 65 L 145 105 Q 145 143 100 160 Q 55 143 55 105 L 55 65 Z" 
        fill="none" stroke="#10b981" stroke-width="2" opacity="0.3"/>
  
  <!-- Lock body on shield -->
  <rect x="85" y="110" width="30" height="35" rx="4" fill="#10b981" opacity="0.95"/>
  
  <!-- Lock shackle -->
  <path d="M 88 110 L 88 98 Q 88 88 100 88 Q 112 88 112 98 L 112 110" 
        stroke="#10b981" stroke-width="6" fill="none" opacity="0.95"/>
  
  <!-- Keyhole -->
  <circle cx="100" cy="122" r="4" fill="white" opacity="0.95"/>
  <rect x="97" y="122" width="6" height="14" fill="white" opacity="0.95"/>
  
  <!-- Diamond crown on top -->
  <polygon points="100,22 115,40 108,55 92,55 85,40" fill="#fef3c7" opacity="0.95" filter="drop-shadow(0 2px 4px rgba(0,0,0,0.3))"/>
  <polygon points="100,30 110,40 106,50 94,50 90,40" fill="white" opacity="0.7"/>
  <line x1="100" y1="22" x2="100" y2="55" stroke="#10b981" stroke-width="1" opacity="0.3"/>
  <line x1="85" y1="40" x2="115" y2="40" stroke="#10b981" stroke-width="1" opacity="0.3"/>
  <circle cx="100" cy="40" r="4" fill="#fbbf24" opacity="0.9"/>
  
  <!-- Check badges around -->
  <circle cx="45" cy="100" r="10" fill="#10b981" opacity="0.9"/>
  <polyline points="41,100 44,103 49,98" stroke="white" stroke-width="2" fill="none" stroke-linecap="round" stroke-linejoin="round"/>
  
  <circle cx="155" cy="100" r="10" fill="#3b82f6" opacity="0.9"/>
  <polyline points="151,100 154,103 159,98" stroke="white" stroke-width="2" fill="none" stroke-linecap="round" stroke-linejoin="round"/>
  
  <!-- Small stars -->
  <polygon points="50,60 52,64 56,64 53,67 54,71 50,68 46,71 47,67 44,64 48,64" fill="#fbbf24" opacity="0.9"/>
  <polygon points="150,60 152,64 156,64 153,67 154,71 150,68 146,71 147,67 144,64 148,64" fill="#fbbf24" opacity="0.9"/>
</svg>

