<svg xmlns="http://www.w3.org/2000/svg" viewBox="0 0 200 200">
  <defs>
    <linearGradient id="stocksMasterGrad" x1="0%" y1="0%" x2="100%" y2="100%">
      <stop offset="0%" style="stop-color:#10b981;stop-opacity:1" />
      <stop offset="100%" style="stop-color:#059669;stop-opacity:1" />
    </linearGradient>
  </defs>
  
  <circle cx="100" cy="100" r="85" fill="#10b981" opacity="0.1"/>
  <circle cx="100" cy="100" r="70" fill="url(#stocksMasterGrad)" opacity="0.9"/>
  
  <!-- Chart rising with crown -->
  <rect x="40" y="60" width="120" height="85" rx="6" fill="white" opacity="0.15"/>
  <polyline points="45,130 65,115 85,110 105,90 125,70 145,50" 
            fill="none" stroke="white" stroke-width="4" stroke-linecap="round" stroke-linejoin="round" opacity="0.95"/>
  <polygon points="45,130 65,115 85,110 105,90 125,70 145,50 145,145 45,145" 
           fill="white" opacity="0.25"/>
  
  <!-- Data points -->
  <circle cx="45" cy="130" r="5" fill="white" opacity="0.95"/>
  <circle cx="65" cy="115" r="5" fill="white" opacity="0.95"/>
  <circle cx="85" cy="110" r="5" fill="white" opacity="0.95"/>
  <circle cx="105" cy="90" r="5" fill="white" opacity="0.95"/>
  <circle cx="125" cy="70" r="5" fill="white" opacity="0.95"/>
  <circle cx="145" cy="50" r="5" fill="white" opacity="0.95"/>
  
  <!-- Crown on highest point -->
  <path d="M 135 28 L 137 38 L 140 34 L 145 26 L 150 34 L 153 38 L 155 28 Z" fill="#fbbf24" opacity="0.95"/>
  <rect x="134" y="38" width="22" height="5" rx="1" fill="#fbbf24" opacity="0.95"/>
  
  <!-- Up arrow -->
  <polygon points="155,45 163,55 160,55 160,68 150,68 150,55 147,55" fill="#fbbf24" opacity="0.95"/>
</svg>

