<svg xmlns="http://www.w3.org/2000/svg" viewBox="0 0 200 200">
  <defs>
    <linearGradient id="bankMasterGrad" x1="0%" y1="0%" x2="100%" y2="100%">
      <stop offset="0%" style="stop-color:#6366f1;stop-opacity:1" />
      <stop offset="100%" style="stop-color:#4f46e5;stop-opacity:1" />
    </linearGradient>
  </defs>
  
  <circle cx="100" cy="100" r="85" fill="#6366f1" opacity="0.1"/>
  <circle cx="100" cy="100" r="70" fill="url(#bankMasterGrad)" opacity="0.9"/>
  
  <!-- Bank building with crown -->
  <rect x="50" y="140" width="100" height="10" fill="white" opacity="0.95"/>
  <rect x="60" y="95" width="12" height="45" fill="white" opacity="0.9"/>
  <rect x="78" y="95" width="12" height="45" fill="white" opacity="0.9"/>
  <rect x="96" y="95" width="12" height="45" fill="white" opacity="0.9"/>
  <rect x="114" y="95" width="12" height="45" fill="white" opacity="0.9"/>
  <polygon points="100,70 50,95 150,95" fill="white" opacity="0.95"/>
  <rect x="90" y="120" width="20" height="20" rx="2" fill="#1e293b" opacity="0.5"/>
  
  <!-- Crown on top -->
  <path d="M 85 50 L 88 62 L 93 57 L 100 47 L 107 57 L 112 62 L 115 50 Z" fill="#fbbf24" opacity="0.95"/>
  <rect x="84" y="62" width="32" height="6" rx="1" fill="#fbbf24" opacity="0.95"/>
  <circle cx="93" cy="56" r="2" fill="#ef4444" opacity="0.9"/>
  <circle cx="100" cy="52" r="2" fill="#3b82f6" opacity="0.9"/>
  <circle cx="107" cy="56" r="2" fill="#10b981" opacity="0.9"/>
  
  <!-- Dollar on roof -->
  <circle cx="100" cy="80" r="8" fill="#ffd700" opacity="0.9"/>
  <text x="100" y="85" font-family="Arial, sans-serif" font-size="10" fill="white" text-anchor="middle" font-weight="bold">₽</text>
</svg>

