<svg xmlns="http://www.w3.org/2000/svg" viewBox="0 0 200 200">
  <defs>
    <linearGradient id="skillsGrad" x1="0%" y1="0%" x2="100%" y2="100%">
      <stop offset="0%" style="stop-color:#06b6d4;stop-opacity:1" />
      <stop offset="100%" style="stop-color:#0891b2;stop-opacity:1" />
    </linearGradient>
  </defs>
  
  <circle cx="100" cy="100" r="85" fill="#06b6d4" opacity="0.1"/>
  <circle cx="100" cy="100" r="70" fill="url(#skillsGrad)" opacity="0.9"/>
  
  <!-- Wrench -->
  <rect x="70" y="80" width="15" height="60" rx="7" fill="white" opacity="0.95" transform="rotate(-30 77.5 110)"/>
  <rect x="68" y="75" width="19" height="15" rx="3" fill="white" opacity="0.95" transform="rotate(-30 77.5 82.5)"/>
  
  <!-- Hammer -->
  <rect x="95" y="85" width="12" height="50" rx="3" fill="white" opacity="0.95" transform="rotate(25 101 110)"/>
  <rect x="88" y="80" width="26" height="18" rx="3" fill="white" opacity="0.95" transform="rotate(25 101 89)"/>
  
  <!-- Gear -->
  <circle cx="130" cy="110" r="18" fill="white" opacity="0.95"/>
  <circle cx="130" cy="110" r="10" fill="none" stroke="#06b6d4" stroke-width="8" opacity="0.6"/>
  <circle cx="130" cy="110" r="6" fill="#06b6d4" opacity="0.7"/>
  <!-- Gear teeth -->
  <rect x="128" y="88" width="4" height="8" fill="white" opacity="0.95"/>
  <rect x="128" y="124" width="4" height="8" fill="white" opacity="0.95"/>
  <rect x="146" y="108" width="8" height="4" fill="white" opacity="0.95"/>
  <rect x="112" y="108" width="8" height="4" fill="white" opacity="0.95"/>
  
  <!-- Sparkles -->
  <polygon points="60,60 62,64 66,64 63,67 64,71 60,68 56,71 57,67 54,64 58,64" fill="#fbbf24" opacity="0.9"/>
</svg>

