<svg xmlns="http://www.w3.org/2000/svg" viewBox="0 0 200 200">
  <defs>
    <linearGradient id="insuranceGrad" x1="0%" y1="0%" x2="100%" y2="100%">
      <stop offset="0%" style="stop-color:#14b8a6;stop-opacity:1" />
      <stop offset="100%" style="stop-color:#0d9488;stop-opacity:1" />
    </linearGradient>
  </defs>
  
  <!-- Background circle -->
  <circle cx="100" cy="100" r="90" fill="url(#insuranceGrad)" opacity="0.1"/>
  
  <!-- Umbrella handle -->
  <path d="M 100 140 Q 110 150 115 155" stroke="url(#insuranceGrad)" stroke-width="4" fill="none" stroke-linecap="round" opacity="0.9"/>
  
  <!-- Umbrella canopy -->
  <path d="M 50 90 Q 50 60 75 60 Q 75 75 88 75 Q 88 60 100 60 Q 100 75 112 75 Q 112 60 125 60 Q 150 60 150 90 L 100 90 Z" 
        fill="url(#insuranceGrad)" opacity="0.9"/>
  
  <!-- Umbrella sections -->
  <line x1="75" y1="60" x2="75" y2="90" stroke="#14b8a6" stroke-width="2" opacity="0.5"/>
  <line x1="100" y1="60" x2="100" y2="90" stroke="#14b8a6" stroke-width="2" opacity="0.5"/>
  <line x1="125" y1="60" x2="125" y2="90" stroke="#14b8a6" stroke-width="2" opacity="0.5"/>
  
  <!-- Rain drops -->
  <ellipse cx="45" cy="110" rx="3" ry="5" fill="#38bdf8" opacity="0.6"/>
  <ellipse cx="55" cy="125" rx="3" ry="5" fill="#38bdf8" opacity="0.6"/>
  <ellipse cx="65" cy="140" rx="3" ry="5" fill="#38bdf8" opacity="0.6"/>
  
  <ellipse cx="155" cy="110" rx="3" ry="5" fill="#38bdf8" opacity="0.6"/>
  <ellipse cx="145" cy="125" rx="3" ry="5" fill="#38bdf8" opacity="0.6"/>
  <ellipse cx="135" cy="140" rx="3" ry="5" fill="#38bdf8" opacity="0.6"/>
  
  <!-- Shield -->
  <path d="M 160 50 L 170 50 L 170 65 Q 165 70 160 65 Z" fill="url(#insuranceGrad)" opacity="0.7"/>
  <text x="165" y="62" font-family="Arial, sans-serif" font-size="10" fill="white" text-anchor="middle" font-weight="bold">✓</text>
</svg>

